<?xml version="1.0" encoding="UTF-8"?>
<svg width="160px" height="110px" viewBox="0 0 160 131" version="1.1" xmlns="http://www.w3.org/2000/svg" xmlns:xlink="http://www.w3.org/1999/xlink">
    <!-- Generator: Sketch 41.2 (35397) - http://www.bohemiancoding.com/sketch -->
    <title>Group 2</title>
    <desc>Created with Sketch.</desc>
    <defs></defs>
    <g id="Page-1" stroke="none" stroke-width="1" fill="none" fill-rule="evenodd">
        <g id="Desktop-HD-Copy-2" transform="translate(-880.000000, -64.000000)">
            <g id="Group-2" transform="translate(880.000000, 64.000000)">
                <path d="M4.33138459,129.994587 L4.33138459,117.51956 L11.1104491,117.51956 L11.1104491,113.751532 L-3.01129694e-06,113.751532 L-3.01129694e-06,129.994587 L4.33138459,129.994587 Z M21.5896612,130.128372 C20.3875689,130.128372 19.3410458,130.045541 18.4527997,129.879757 C17.5646766,129.713849 16.7927382,129.417603 16.1350151,128.987449 C15.481969,128.561357 14.9729228,127.95188 14.6114459,127.164311 C14.2546459,126.378095 14.073969,125.377763 14.073969,124.168864 L14.073969,119.577209 C14.073969,118.368311 14.2546459,117.368028 14.6155075,116.577726 C14.976369,115.784028 15.4852921,115.177209 16.1390767,114.751138 C16.7921228,114.328465 17.5646766,114.032185 18.4527997,113.866377 C19.3410458,113.700571 20.3875689,113.617669 21.5896612,113.617669 C22.7950765,113.617669 23.8456611,113.700571 24.7331688,113.866377 C25.6253534,114.032185 26.3972919,114.328465 27.0510765,114.751138 C27.7041226,115.177209 28.2130457,115.784028 28.5745226,116.577726 C28.9313226,117.368028 29.1121226,118.368311 29.1121226,119.577209 L29.1121226,124.168864 C29.1121226,125.377763 28.9313226,126.378095 28.5745226,127.164311 C28.2171072,127.951141 27.7116303,128.561357 27.055138,128.987449 C26.3980303,129.417603 25.6253534,129.713234 24.7337842,129.879757 C23.8456611,130.045541 22.795815,130.128372 21.5896612,130.128372 Z M21.5896612,126.359757 C22.4200612,126.359757 23.0403688,126.301911 23.4562458,126.186464 C23.8674458,126.074957 24.1704611,125.825566 24.3620919,125.450464 C24.5537227,125.0706 24.6475073,124.486218 24.6475073,123.69252 L24.6475073,120.031831 C24.6475073,119.42228 24.5931073,118.941862 24.4851688,118.595978 C24.3804304,118.248729 24.2071381,117.985738 23.9761227,117.812458 C23.7416611,117.639178 23.4419688,117.523658 23.0737227,117.469295 C22.7053535,117.415609 22.2107073,117.386378 21.5902766,117.386378 C20.7707074,117.386378 20.1571689,117.444138 19.7494151,117.556262 C19.3451074,117.668385 19.0494766,117.910317 18.8578459,118.281345 C18.6669535,118.649652 18.5615997,119.234046 18.5398151,120.031831 L18.5398151,123.69252 C18.5615997,124.493689 18.6669535,125.082157 18.8537843,125.453861 C19.0413535,125.829652 19.3410458,126.074957 19.7487997,126.186464 C20.1564304,126.301911 20.7708304,126.359757 21.5896612,126.359757 Z M37.360984,129.994587 L33.029661,129.994587 L33.029661,113.751532 L41.2017223,113.751532 C42.2196916,113.751532 43.0827069,113.863671 43.7867069,114.090637 C44.4907069,114.314884 45.0574761,114.661428 45.4903376,115.130305 C45.9238146,115.599191 46.2412299,116.213492 46.4430761,116.967105 C46.6455376,117.725468 46.7460915,118.634711 46.7460915,119.703634 C46.7460915,120.894181 46.6665838,121.876101 46.5042453,122.645332 C46.3417838,123.413898 46.0604299,124.034292 45.66363,124.497061 C45.2667069,124.963228 44.70683,125.302341 43.9885531,125.515043 C43.2702762,125.727744 42.3385839,125.835769 41.1983993,125.835769 L37.3617224,125.835769 L37.3617224,129.994587 L37.360984,129.994587 Z M37.360984,122.067745 L40.3278762,122.067745 C40.916307,122.067745 41.3423993,122.014046 41.6019685,121.909394 C41.8582146,121.804741 42.0390146,121.591363 42.1368608,121.270625 C42.2339685,120.952606 42.2808608,120.430046 42.2808608,119.704298 C42.2808608,119.119215 42.2339685,118.674785 42.1368608,118.368323 C42.0423377,118.065246 41.85883,117.844409 41.5843685,117.714625 C41.3064608,117.585505 40.8911993,117.51956 40.3278762,117.51956 L37.360984,117.51956 L37.360984,122.067745 Z M50.4870145,113.751532 L54.601599,113.751532 L54.601599,124.446797 L54.7531067,124.446797 L59.817722,113.751532 L65.5135988,113.751532 L65.5135988,129.994587 L61.3982758,129.994587 L61.3982758,119.299277 L61.2502143,119.299277 L56.3772297,129.994587 L50.4870145,129.994587 L50.4870145,113.751532 Z M77.3899063,123.258969 L75.0903371,123.258969 L75.0903371,120.252028 L77.1519986,120.252028 C77.6284293,120.252028 78.0001216,120.211905 78.2637524,120.129 C78.5275062,120.050181 78.7183985,119.89796 78.8447985,119.674391 C78.9711985,119.454218 79.0323678,119.12532 79.0323678,118.692446 C79.0323678,118.147462 78.8658447,117.754034 78.5342755,117.512803 C78.1985216,117.270883 77.5163063,117.151966 76.4807371,117.151966 C75.8703986,117.151966 75.3940909,117.19476 75.0475063,117.285135 C74.7049832,117.375523 74.4521832,117.541345 74.2932909,117.779855 C74.1308294,118.021775 74.0513217,118.368323 74.0513217,118.819535 L69.8891064,118.819535 L69.8891064,118.148163 C69.8891064,116.978686 70.1453526,116.066034 70.6509525,115.397369 C71.1598756,114.730065 71.896491,114.263922 72.8635064,114.000262 C73.8270756,113.733203 75.055014,113.6 76.5417832,113.6 C78.032737,113.6 79.2783985,113.726407 80.2703985,113.982593 C81.2667062,114.238779 82.0284293,114.682491 82.5625831,115.314465 C83.0966138,115.949825 83.3644292,116.812188 83.3644292,117.90964 C83.3644292,119.050588 83.1911369,119.920397 82.8404908,120.519745 C82.4898446,121.115018 81.8150139,121.494181 80.8086139,121.656594 L80.8086139,121.833985 C81.8225216,121.924372 82.54486,122.255941 82.9743985,122.830157 C83.4078754,123.40436 83.6239985,124.208286 83.6239985,125.251388 C83.6239985,126.255757 83.5302138,127.056249 83.3426446,127.663018 C83.1517523,128.265726 82.8119369,128.749664 82.3212292,129.110403 C81.8300293,129.471264 81.1300908,129.731572 80.2201831,129.889849 C79.3102755,130.048249 78.0973524,130.128372 76.5853524,130.128372 C75.3396909,130.128372 74.3075679,130.056372 73.4812294,129.915695 C72.6583371,129.770957 71.9617218,129.511387 71.4018448,129.136249 C70.8383987,128.757049 70.4124295,128.209357 70.1276295,127.490464 C69.8422141,126.772188 69.7015372,125.847991 69.7015372,124.714526 L73.8562448,124.714526 C73.8562448,125.270378 73.9357525,125.682194 74.0947679,125.945849 C74.2531679,126.20948 74.5175371,126.379449 74.8884909,126.458218 C75.2568602,126.537726 75.8235063,126.577849 76.5853524,126.577849 C77.2926755,126.577849 77.834337,126.535018 78.213537,126.448003 C78.5892909,126.361111 78.8596909,126.202711 79.0255985,125.967634 C79.187937,125.733148 79.2708908,125.387289 79.2708908,124.93268 C79.2708908,124.332655 79.1302139,123.903166 78.8523062,123.646981 C78.5709524,123.389431 78.0830755,123.258969 77.3899063,123.258969 Z M94.5618444,130.128372 C93.3590137,130.128372 92.3124906,130.045541 91.425106,129.879757 C90.5375983,129.713849 89.7649214,129.417603 89.1078137,128.987449 C88.4547676,128.561357 87.9452291,127.95188 87.5843676,127.164311 C87.2275676,126.378095 87.0467676,125.377763 87.0467676,124.168864 L87.0467676,119.577209 C87.0467676,118.368311 87.2275676,117.368028 87.5884291,116.577726 C87.9492907,115.784028 88.4582137,115.177209 89.1112599,114.751138 C89.7649214,114.328465 90.5375983,114.032185 91.425106,113.866377 C92.3124906,113.700571 93.3597521,113.617669 94.5618444,113.617669 C95.7673828,113.617669 96.817229,113.700571 97.7060905,113.866377 C98.5976597,114.032185 99.3695982,114.328465 100.02326,114.751138 C100.676306,115.177209 101.185352,115.784028 101.54609,116.577726 C101.90289,117.368028 102.083567,118.368311 102.083567,119.577209 L102.083567,124.168864 C102.083567,125.377763 101.90289,126.378095 101.54609,127.164311 C101.189414,127.951141 100.683075,128.561357 100.026706,128.987449 C99.3695982,129.417603 98.5969212,129.713234 97.7060905,129.879757 C96.8178444,130.045541 95.7679982,130.128372 94.5618444,130.128372 Z M94.5618444,126.359757 C95.3922444,126.359757 96.0126751,126.301911 96.4278136,126.186464 C96.8388905,126.074957 97.1427674,125.825566 97.3336597,125.450464 C97.5252905,125.0706 97.6190751,124.486218 97.6190751,123.69252 L97.6190751,120.031831 C97.6190751,119.42228 97.5646751,118.941862 97.4566136,118.595978 C97.3527367,118.248729 97.1787059,117.985738 96.9476905,117.812458 C96.713229,117.639178 96.4135367,117.523658 96.0452905,117.469295 C95.6769213,117.415609 95.1822752,117.386378 94.5618444,117.386378 C93.7422752,117.386378 93.1287367,117.444138 92.7209829,117.556262 C92.3159367,117.668385 92.0210444,117.910317 91.8286752,118.281345 C91.6377829,118.649652 91.5324291,119.234046 91.5106445,120.031831 L91.5106445,123.69252 C91.5324291,124.493689 91.6377829,125.082157 91.8253521,125.453861 C92.0121829,125.829652 92.3126137,126.074957 92.7202444,126.186464 C93.1287367,126.301911 93.7422752,126.359757 94.5618444,126.359757 Z M120.451567,113.751532 L120.451567,129.994587 L116.119506,129.994587 L116.119506,123.627277 L110.463752,123.627277 L110.463752,129.994587 L106.132306,129.994587 L106.132306,113.751532 L110.463752,113.751532 L110.463752,119.859252 L116.119506,119.859252 L116.119506,113.751532 L120.451567,113.751532 Z M132.280613,117.51956 L132.280613,129.994587 L127.948305,129.994587 L127.948305,117.51956 L123.787075,117.51956 L123.787075,113.751532 L136.652305,113.751532 L136.652305,117.51956 L132.280613,117.51956 Z M144.190767,113.751532 L139.862151,113.751532 L139.862151,129.994587 L148.219074,129.994587 C149.31569,129.994587 150.236305,129.813787 150.979689,129.456372 C151.723074,129.099572 152.283074,128.539695 152.658459,127.777849 C153.033843,127.016741 153.222151,126.037541 153.222151,124.840237 C153.222151,123.641529 153.033843,122.659609 152.654766,121.898526 C152.279382,121.13268 151.71692,120.573418 150.966151,120.215978 C150.215382,119.861935 149.28369,119.685258 148.172305,119.685258 L144.190767,119.685258 L144.190767,113.751532 Z M144.190767,123.237197 L147.201228,123.237197 C147.839997,123.237197 148.280613,123.349332 148.525536,123.569504 C148.770459,123.789664 148.893536,124.226624 148.893536,124.883744 C148.893536,125.500766 148.770459,125.912495 148.525536,126.125295 C148.280613,126.337972 147.839997,126.443326 147.201228,126.443326 L144.190767,126.443326 L144.190767,123.237197 Z M159.999997,113.751532 L159.999997,129.994587 L155.66892,129.994587 L155.66892,113.751532 L159.999997,113.751532 Z" id="path0_fill" fill="#FFFFFF"></path>
                <g id="Ellipse" transform="translate(30.188679, 0.000000)">
                    <g id="path1_fill-link" transform="translate(0.507170, 0.000000)">
                        <path d="M96.5871094,48.2935547 C96.5871094,74.9653736 74.9653736,96.5871094 48.2935547,96.5871094 C21.6217358,96.5871094 6.82121026e-14,74.9653736 6.82121026e-14,48.2935547 C6.82121026e-14,21.6217358 21.6217358,0 48.2935547,0 C74.9653736,0 96.5871094,21.6217358 96.5871094,48.2935547 Z" id="path1_fill"></path>
                    </g>
                </g>
                <path d="M125.826176,74.0223413 C122.637952,80.4117046 118.153344,86.0398135 112.717696,90.5652536 C100.294528,90.1616695 96.5350395,100.144902 75.2180471,91.7697336 C82.7339513,96.2635576 94.1502714,98.2725177 100.287232,95.9626296 C104.89984,94.2272056 107.39392,92.9808696 110.261248,92.4885816 C101.78176,98.7179577 91.3145594,102.399494 79.9884792,102.399494 C63.134463,102.399494 48.1841907,94.2488376 38.8542962,81.677599 C42.3573234,81.7116598 46.0022643,82.9342006 48.0680947,84.0659255 C51.5101428,85.9516215 58.5116149,86.9399095 62.4537589,85.7895735 C80.0014072,80.669215 79.6046072,82.434143 90.0280314,87.2965175 C96.1655035,90.1591095 107.581312,87.6706615 115.097216,82.0992182 C93.4819834,92.6257976 89.9206394,79.7537206 77.0712312,80.6346294 C71.0158071,81.0500662 64.602623,84.8492855 58.6849269,84.6604855 C50.9853428,84.4147255 45.7122419,79.7568182 37.2090994,79.3300406 C36.0882161,77.6290998 35.0658916,75.8574517 34.1503985,74.0233653 C48.7729907,71.8445582 64.136703,70.6803252 79.9879672,70.6803252 C95.8393595,70.6803252 111.202944,71.8440501 125.826176,74.0223413 Z" id="Combined-Shape" fill="#B4192D"></path>
                <path d="M79.9999992,1.42108547e-14 C108.271872,1.42108547e-14 131.2,22.9281325 131.2,51.2000049 C131.2,59.1390771 129.391232,66.6570292 126.164224,73.3638453 C111.753216,69.5548212 96.2100475,67.4740532 79.9999992,67.4740532 C63.789951,67.4740532 48.2467827,69.5548212 33.8357233,73.3638453 C30.6087921,66.6570292 28.8,59.1395891 28.8,51.2000049 C28.8,22.9281325 51.7281268,1.42108547e-14 79.9999992,1.42108547e-14 Z" id="path3_fill-path" fill="#FF8344"></path>
                <g id="Vector" transform="translate(25.600000, 66.080005)" fill="#6A3A20">
                    <g id="path4_fill-link" transform="translate(1.057519, 0.862189)">
                        <path d="M0.40434534,8.34535849 C16.6554171,3.19409871 34.4701476,0.345358491 53.1558592,0.345358491 C71.8415709,0.345358491 89.6563014,3.19409871 105.907376,8.34535849 C89.221136,5.36484262 71.5096694,3.75627393 53.1558592,3.75627393 C34.8021791,3.75627393 17.0912328,5.36484262 0.40434534,8.34535849 Z" id="path4_fill"></path>
                    </g>
                </g>
            </g>
        </g>
    </g>
</svg>